# xmcd
#
# Track frame offsets:
# 150
# 24158
# 43007
# 63826
# 85477
# 104663
# 131789
# 155796
# 183981
#
# Disc length: 2953 seconds
#
#
# Revision: 0
# Processed by: cddbd v1.5.2PL0 Copyright (c) Steve Scherf et al.
# Submitted via: FreeRIP 2.945 
#
DISCID=780b8709
DTITLE=The Cartel - In The Mind Of A Madman
DYEAR=2006
DGENRE=Jazz
TTITLE0=Power And Love
TTITLE1=Shake It
TTITLE2=All I've Got Is Pain
TTITLE3=I Don't Know How
TTITLE4=Cool Down
TTITLE5=Fear Of Flying
TTITLE6=Peace Of Mind
TTITLE7=Superfreaky
TTITLE8=Colorexplosion
EXTD=
EXTT0=
EXTT1=
EXTT2=
EXTT3=
EXTT4=
EXTT5=
EXTT6=
EXTT7=
EXTT8=
PLAYORDER=
